<svg xmlns="http://www.w3.org/2000/svg" viewBox="0 0 320 320" role="img" aria-labelledby="title desc">
  <title id="title">MicroCD Labs circular clarity logo</title>
  <desc id="desc">A circular MicroCD Labs logo focused on clarity and connection with small lettering.</desc>
  <defs>
    <linearGradient id="disc" x1="54" y1="38" x2="268" y2="276" gradientUnits="userSpaceOnUse">
      <stop offset="0" stop-color="#16a39a"/>
      <stop offset="0.62" stop-color="#0f766e"/>
      <stop offset="1" stop-color="#0a4f4b"/>
    </linearGradient>
    <linearGradient id="warm" x1="80" y1="70" x2="240" y2="216" gradientUnits="userSpaceOnUse">
      <stop offset="0" stop-color="#d85b45"/>
      <stop offset="1" stop-color="#d79a2b"/>
    </linearGradient>
  </defs>
  <circle cx="160" cy="160" r="152" fill="#ffffff"/>
  <circle cx="160" cy="160" r="142" fill="#f3f7f4"/>
  <circle cx="160" cy="130" r="82" fill="url(#disc)"/>
  <circle cx="160" cy="130" r="34" fill="#ffffff"/>
  <circle cx="160" cy="130" r="11" fill="#0f766e"/>
  <g fill="none" stroke="#ffffff" stroke-width="8.5" stroke-linecap="round" stroke-linejoin="round" opacity="0.95">
    <path d="M160 130 C130 112 108 92 91 68"/>
    <path d="M160 130 C193 109 216 90 239 68"/>
    <path d="M160 130 C130 151 108 173 91 195"/>
    <path d="M160 130 C193 151 216 173 239 195"/>
  </g>
  <g fill="url(#warm)">
    <circle cx="91" cy="68" r="12"/>
    <circle cx="239" cy="68" r="12"/>
    <circle cx="91" cy="195" r="12"/>
    <circle cx="239" cy="195" r="12"/>
  </g>
  <path d="M129 129 C138 105 181 105 191 129 C202 157 162 174 160 175 C158 174 118 157 129 129Z" fill="#ffffff" opacity="0.95"/>
  <path d="M143 129 C149 116 172 116 177 129 C183 145 161 154 160 155 C159 154 137 145 143 129Z" fill="#d85b45"/>
  <text
    x="160"
    y="252"
    fill="#18211f"
    text-anchor="middle"
    font-family="Inter, Helvetica Neue, Arial, sans-serif"
    font-size="34"
    font-weight="350"
    letter-spacing="0">microcd labs</text>
</svg>
