<svg xmlns="http://www.w3.org/2000/svg" width="2in" height="2in" viewBox="0 0 600 600" role="img" aria-labelledby="title desc">
  <title id="title">MicroCD Labs circular logo</title>
  <desc id="desc">A compact circular MicroCD Labs logo with smaller microcd labs lettering.</desc>
  <defs>
    <linearGradient id="disc" x1="120" y1="80" x2="480" y2="520" gradientUnits="userSpaceOnUse">
      <stop offset="0" stop-color="#16a39a"/>
      <stop offset="0.62" stop-color="#0f766e"/>
      <stop offset="1" stop-color="#0a4f4b"/>
    </linearGradient>
    <linearGradient id="warm" x1="150" y1="120" x2="450" y2="420" gradientUnits="userSpaceOnUse">
      <stop offset="0" stop-color="#d85b45"/>
      <stop offset="1" stop-color="#d79a2b"/>
    </linearGradient>
  </defs>
  <circle cx="300" cy="300" r="286" fill="#ffffff"/>
  <circle cx="300" cy="300" r="268" fill="#f3f7f4"/>
  <circle cx="300" cy="250" r="154" fill="url(#disc)"/>
  <circle cx="300" cy="250" r="62" fill="#ffffff"/>
  <circle cx="300" cy="250" r="20" fill="#0f766e"/>
  <g fill="none" stroke="#ffffff" stroke-width="17" stroke-linecap="round" stroke-linejoin="round" opacity="0.95">
    <path d="M300 250 C243 216 202 177 170 130"/>
    <path d="M300 250 C361 211 405 174 450 130"/>
    <path d="M300 250 C243 290 202 331 170 372"/>
    <path d="M300 250 C361 290 405 331 450 372"/>
  </g>
  <g fill="url(#warm)">
    <circle cx="170" cy="130" r="24"/>
    <circle cx="450" cy="130" r="24"/>
    <circle cx="170" cy="372" r="24"/>
    <circle cx="450" cy="372" r="24"/>
  </g>
  <text
    x="300"
    y="470"
    text-anchor="middle"
    font-family="Inter, Arial, Helvetica, sans-serif"
    font-size="62"
    font-weight="350"
    letter-spacing="0"
    fill="#18211f">microcd labs</text>
</svg>
