<svg xmlns="http://www.w3.org/2000/svg" viewBox="0 0 320 320" role="img" aria-labelledby="title desc">
  <title id="title">microcd labs circular logo</title>
  <desc id="desc">A circular MicroCD Labs logo with small microcd labs lettering.</desc>
  <defs>
    <linearGradient id="disc" x1="56" y1="42" x2="260" y2="284" gradientUnits="userSpaceOnUse">
      <stop offset="0" stop-color="#16a39a"/>
      <stop offset="0.7" stop-color="#0f766e"/>
      <stop offset="1" stop-color="#0a4f4b"/>
    </linearGradient>
  </defs>
  <circle cx="160" cy="160" r="152" fill="#ffffff"/>
  <circle cx="160" cy="160" r="142" fill="#f3f7f4"/>
  <circle cx="160" cy="132" r="78" fill="url(#disc)"/>
  <circle cx="160" cy="132" r="31" fill="#ffffff"/>
  <circle cx="160" cy="132" r="10" fill="#0f766e"/>
  <g fill="none" stroke="#ffffff" stroke-width="8" stroke-linecap="round" opacity="0.92">
    <path d="M160 132 C132 116 112 96 96 73"/>
    <path d="M160 132 C190 113 211 94 231 73"/>
    <path d="M160 132 C132 151 112 171 96 191"/>
    <path d="M160 132 C190 151 211 171 231 191"/>
  </g>
  <g fill="#d66a45">
    <circle cx="96" cy="73" r="11"/>
    <circle cx="231" cy="73" r="11"/>
    <circle cx="96" cy="191" r="11"/>
    <circle cx="231" cy="191" r="11"/>
  </g>
  <text
    x="160"
    y="252"
    fill="#18211f"
    text-anchor="middle"
    font-family="Inter, Helvetica Neue, Arial, sans-serif"
    font-size="34"
    font-weight="350"
    letter-spacing="0">microcd labs</text>
</svg>
